<mxfile host="app.diagrams.net" agent="Mozilla/5.0 (Macintosh; Intel Mac OS X 10_15_7) AppleWebKit/537.36 (KHTML, like Gecko) Chrome/130.0.0.0 Safari/537.36" version="24.7.8">
  <diagram name="第 1 页" id="qRAZmjMWyz98e3kLCTtJ">
    <mxGraphModel dx="1242" dy="785" grid="1" gridSize="10" guides="1" tooltips="1" connect="1" arrows="1" fold="1" page="1" pageScale="1" pageWidth="827" pageHeight="1169" math="0" shadow="0">
      <root>
        <mxCell id="0" />
        <mxCell id="1" parent="0" />
        <mxCell id="GRKkvc-VWEXsy-gpg56Z-1" value="原始需求文档" style="rounded=1;whiteSpace=wrap;html=1;fontSize=20;shadow=0;sketch=1;curveFitting=1;jiggle=2;" vertex="1" parent="1">
          <mxGeometry x="50" y="170" width="150" height="40" as="geometry" />
        </mxCell>
        <mxCell id="GRKkvc-VWEXsy-gpg56Z-2" value="需求文档润色" style="rounded=1;whiteSpace=wrap;html=1;fontSize=20;sketch=1;curveFitting=1;jiggle=2;glass=0;" vertex="1" parent="1">
          <mxGeometry x="260" y="170" width="140" height="40" as="geometry" />
        </mxCell>
        <mxCell id="GRKkvc-VWEXsy-gpg56Z-3" value="Agent" style="text;html=1;align=center;verticalAlign=middle;whiteSpace=wrap;rounded=0;fillColor=#ffe6cc;strokeColor=#d79b00;" vertex="1" parent="1">
          <mxGeometry x="300" y="130" width="60" height="30" as="geometry" />
        </mxCell>
        <mxCell id="GRKkvc-VWEXsy-gpg56Z-4" value="功能点拆解" style="rounded=1;whiteSpace=wrap;html=1;fontSize=20;sketch=1;curveFitting=1;jiggle=2;glass=0;" vertex="1" parent="1">
          <mxGeometry x="460" y="170" width="140" height="40" as="geometry" />
        </mxCell>
      </root>
    </mxGraphModel>
  </diagram>
</mxfile>
